<?xml version="1.0" encoding="UTF-8" standalone="no"?>
<svg
   width="22"
   height="15"
   fill="currentColor"
   viewBox="0 0 22 15"
   version="1.1"
   id="svg3185"
   sodipodi:docname="image-up.svg"
   inkscape:version="1.2.2 (b0a8486, 2022-12-01)"
   xmlns:inkscape="http://www.inkscape.org/namespaces/inkscape"
   xmlns:sodipodi="http://sodipodi.sourceforge.net/DTD/sodipodi-0.dtd"
   xmlns="http://www.w3.org/2000/svg"
   xmlns:svg="http://www.w3.org/2000/svg">
  <defs
     id="defs3189" />
  <sodipodi:namedview
     id="namedview3187"
     pagecolor="#ffffff"
     bordercolor="#666666"
     borderopacity="1.0"
     inkscape:showpageshadow="2"
     inkscape:pageopacity="0.0"
     inkscape:pagecheckerboard="0"
     inkscape:deskcolor="#d1d1d1"
     showgrid="false"
     inkscape:zoom="15.733333"
     inkscape:cx="9.5021186"
     inkscape:cy="7.5317797"
     inkscape:window-width="1920"
     inkscape:window-height="1027"
     inkscape:window-x="0"
     inkscape:window-y="25"
     inkscape:window-maximized="1"
     inkscape:current-layer="svg3185" />
  <path
     d="m 9,4.5 a 1.5,1.5 0 1 1 -3,0 1.5,1.5 0 0 1 3,0 z"
     id="path3179" />
  <path
     d="m 5,0 a 2,2 0 0 0 -2,2 v 10 a 2,2 0 0 0 2,2 h 9.777 a 4.5,4.5 0 0 1 -0.777,-2.5 4.5,4.5 0 0 1 2.256,-3.898 l -2.033,-1.05 a 0.5,0.5 0 0 0 -0.577,0.094 l -3.71,3.71 -2.66,-1.772 a 0.5,0.5 0 0 0 -0.63,0.062 l -2.646,2.354 v -9 a 1,1 0 0 1 1,-1 h 12 a 1,1 0 0 1 1,1 v 5.043 a 4.5,4.5 0 0 1 0.5,-0.043 4.5,4.5 0 0 1 0.5,0.03 v -5.03 a 2,2 0 0 0 -2,-2 z"
     id="path3181" />
  <path
     d="m 18.495,15 a 3.5,3.5 0 1 0 0,-7 3.5,3.5 0 0 0 0,7 z m 0.354,-5.854 1.5,1.5 a 0.5006316,0.5006316 0 0 1 -0.708,0.708 l -0.646,-0.647 v 2.793 a 0.5,0.5 0 0 1 -1,0 v -2.793 l -0.646,0.647 a 0.5006316,0.5006316 0 0 1 -0.708,-0.708 l 1.5,-1.5 a 0.5,0.5 0 0 1 0.708,0 z"
     id="path3183" />
</svg>
