<?xml version="1.0" encoding="UTF-8" standalone="no"?>
<svg
   width="22"
   height="15"
   fill="currentColor"
   viewBox="0 0 22 15"
   version="1.1"
   id="svg3185"
   sodipodi:docname="json-up.svg"
   inkscape:version="1.3 (0e150ed, 2023-07-21)"
   xmlns:inkscape="http://www.inkscape.org/namespaces/inkscape"
   xmlns:sodipodi="http://sodipodi.sourceforge.net/DTD/sodipodi-0.dtd"
   xmlns="http://www.w3.org/2000/svg"
   xmlns:svg="http://www.w3.org/2000/svg">
  <defs
     id="defs3189" />
  <sodipodi:namedview
     id="namedview3187"
     pagecolor="#ffffff"
     bordercolor="#666666"
     borderopacity="1.0"
     inkscape:showpageshadow="2"
     inkscape:pageopacity="0.0"
     inkscape:pagecheckerboard="0"
     inkscape:deskcolor="#d1d1d1"
     showgrid="false"
     inkscape:zoom="15.733333"
     inkscape:cx="7.4046612"
     inkscape:cy="-3.8135594"
     inkscape:window-width="1920"
     inkscape:window-height="1027"
     inkscape:window-x="0"
     inkscape:window-y="25"
     inkscape:window-maximized="1"
     inkscape:current-layer="svg3185" />
  <path
     d="m 18.495,15 a 3.5,3.5 0 1 0 0,-7 3.5,3.5 0 0 0 0,7 z m 0.354,-5.854 1.5,1.5 a 0.5006316,0.5006316 0 0 1 -0.708,0.708 l -0.646,-0.647 v 2.793 a 0.5,0.5 0 0 1 -1,0 v -2.793 l -0.646,0.647 a 0.5006316,0.5006316 0 0 1 -0.708,-0.708 l 1.5,-1.5 a 0.5,0.5 0 0 1 0.708,0 z"
     id="path3183" />
  <text
     xml:space="preserve"
     style="font-size:14.2858px;line-height:1.25;font-family:'Helvetica Neue';-inkscape-font-specification:'Helvetica Neue';letter-spacing:-0.915092px;display:none;stroke-width:0.999996"
     x="2.9997518"
     y="10.999968"
     id="text2"
     transform="scale(0.94388045,1.0594562)"><tspan
       sodipodi:role="line"
       id="tspan2"
       x="2.9997518"
       y="10.999968"
       style="font-style:normal;font-variant:normal;font-weight:500;font-stretch:normal;font-size:14.2858px;font-family:'Rounded Mplus 1c';-inkscape-font-specification:'Rounded Mplus 1c Medium';letter-spacing:-0.915092px;stroke-width:0.999996">{}</tspan></text>
  <path
     style="font-weight:500;font-size:14.2858px;line-height:1.25;font-family:'Rounded Mplus 1c';-inkscape-font-specification:'Rounded Mplus 1c Medium';letter-spacing:-0.915092px;display:inline;stroke-width:0.999996"
     d="m 4.4283318,7.2142306 q -0.2428586,-0.014286 -0.428574,-0.1857154 -0.1857154,-0.1857154 -0.1857154,-0.428574 0,-0.2428586 0.1714296,-0.4142882 0.1857154,-0.1714296 0.4428598,-0.1857154 1.1714356,-0.014286 1.1714356,-1.714296 v -2.071441 q 0,-1.1857214 0.4857172,-1.70001021 0.4857172,-0.514288799653 1.5857238,-0.514288799653 h 1.000006 q 0.2428586,0 0.4000024,0.171429599653 0.1714296,0.1714296 0.1714296,0.4000024 0,0.2285728 -0.1714296,0.4000024 -0.1571438,0.17142961 -0.4000024,0.17142961 h -0.285716 q -0.8142906,0 -1.0857208,0.2714302 -0.2714302,0.2714302 -0.2714302,1.2285788 v 1.714296 q 0,0.9000054 -0.3142876,1.4142942 -0.3000018,0.500003 -1.0142918,0.8142906 -0.028572,0 -0.028572,0.014286 0,0.028572 0.028572,0.028572 0.71429,0.3142876 1.0142918,0.8285764 0.3142876,0.500003 0.3142876,1.4000084 v 1.7142968 q 0,0.942862 0.2714302,1.214293 0.2714302,0.285716 1.0857208,0.285716 h 0.285716 q 0.2428586,0 0.4000024,0.157143 0.1714296,0.17143 0.1714296,0.414289 0,0.242858 -0.1714296,0.400002 -0.1571438,0.17143 -0.4000024,0.17143 h -1.000006 q -1.1000066,0 -1.5857238,-0.514289 -0.4857172,-0.514289 -0.4857172,-1.70001 v -2.0714418 q 0,-1.7000102 -1.1714356,-1.7142966 z m 10.2135002,-0.5857178 q 0.02857,0 0.02857,-0.028572 0,-0.014286 -0.02857,-0.014286 -0.71429,-0.3142876 -1.028577,-0.8142906 -0.300002,-0.5142888 -0.300002,-1.4142942 v -1.714296 q 0,-0.9571486 -0.27143,-1.2285788 -0.27143,-0.2714302 -1.085721,-0.2714302 h -0.285716 q -0.242859,0 -0.414288,-0.17142961 -0.157144,-0.1714296 -0.157144,-0.4000024 0,-0.2285728 0.157144,-0.4000024 0.171429,-0.171429599653 0.414288,-0.171429599653 h 1.000006 q 1.100007,0 1.585724,0.514288799653 0.485717,0.51428881 0.485717,1.70001021 v 2.071441 q 0,1.7000102 1.171436,1.714296 0.257144,0.014286 0.428574,0.1857154 0.185715,0.1714296 0.185715,0.4142882 0,0.2428586 -0.185715,0.428574 -0.185716,0.1714296 -0.428574,0.1857154 -1.171436,0.014286 -1.171436,1.714296 v 2.071441 q 0,1.185721 -0.485717,1.70001 -0.485717,0.514289 -1.585724,0.514289 h -1.000006 q -0.242859,0 -0.414288,-0.17143 -0.157144,-0.157144 -0.157144,-0.400002 0,-0.242859 0.157144,-0.414289 0.171429,-0.157143 0.414288,-0.157143 h 0.285716 q 0.814291,0 1.085721,-0.285716 0.27143,-0.271431 0.27143,-1.214293 v -1.714296 q 0,-0.9000054 0.300002,-1.4000084 0.314287,-0.5142888 1.028577,-0.8285758 z"
     id="path3"
     transform="scale(0.94388045,1.0594562)"
     aria-label="{}" />
</svg>
